<svg width="1280" height="640" viewBox="0 0 1280 640" fill="none" xmlns="http://www.w3.org/2000/svg">
<path d="M0 0H1280V640H0V0Z" fill="white"/>
<path d="M441.967 393C438.928 393 436.725 392.316 435.357 390.949C434.142 389.581 433.534 387.53 433.534 384.795V246.453C433.534 243.567 434.142 241.439 435.357 240.072C436.725 238.704 438.928 238.021 441.967 238.021H454.046C457.085 238.021 459.288 238.704 460.655 240.072C462.023 241.439 462.706 243.567 462.706 246.453V370.893H532.447C535.486 370.893 537.613 371.576 538.829 372.944C540.044 374.159 540.652 376.211 540.652 379.097V385.251C540.652 387.986 540.044 389.961 538.829 391.177C537.613 392.392 535.486 393 532.447 393H441.967Z" fill="black"/>
<path d="M598.735 396.419C586.276 396.419 576.248 393 568.651 386.163C561.054 379.173 557.256 368.841 557.256 355.167V292.036C557.256 289.149 557.863 287.022 559.079 285.654C560.446 284.287 562.649 283.603 565.688 283.603H577.768C580.806 283.603 583.009 284.287 584.377 285.654C585.744 287.022 586.428 289.149 586.428 292.036V354.483C586.428 361.776 588.327 367.17 592.126 370.665C595.924 374.007 601.546 375.679 608.991 375.679C616.892 375.679 623.502 373.476 628.82 369.069C634.137 364.663 636.796 358.965 636.796 351.976V292.036C636.796 289.149 637.48 287.022 638.848 285.654C640.215 284.287 642.418 283.603 645.457 283.603H657.308C660.347 283.603 662.55 284.287 663.918 285.654C665.285 287.022 665.969 289.149 665.969 292.036V386.846C665.969 389.277 665.589 390.949 664.829 391.86C664.07 392.62 662.474 393 660.043 393H647.28C645.609 393 644.393 392.696 643.634 392.088C642.874 391.329 642.418 390.189 642.266 388.67L641.355 379.097C631.023 390.645 616.816 396.419 598.735 396.419Z" fill="black"/>
<path d="M701.487 393C698.449 393 696.245 392.316 694.878 390.949C693.511 389.581 692.827 387.53 692.827 384.795V289.756C692.827 287.477 693.207 285.882 693.966 284.97C694.726 284.059 696.321 283.603 698.753 283.603H710.832C712.503 283.603 713.719 283.983 714.478 284.742C715.238 285.35 715.694 286.49 715.846 288.161L716.53 297.733C720.936 292.112 725.95 287.781 731.572 284.742C737.345 281.704 744.183 280.184 752.084 280.184C758.769 280.184 764.543 281.704 769.405 284.742C774.419 287.629 778.065 291.96 780.344 297.733C788.701 286.034 800.781 280.184 816.582 280.184C827.37 280.184 835.879 283.451 842.108 289.984C848.49 296.518 851.681 306.242 851.681 319.157V384.795C851.681 387.53 850.997 389.581 849.629 390.949C848.414 392.316 846.211 393 843.02 393H832.992C829.953 393 827.75 392.316 826.383 390.949C825.015 389.581 824.331 387.53 824.331 384.795V320.752C824.331 313.763 822.812 308.749 819.773 305.71C816.886 302.671 812.48 301.152 806.554 301.152C800.325 301.152 795.235 303.203 791.284 307.306C787.486 311.408 785.586 316.954 785.586 323.943V384.795C785.586 387.53 784.903 389.581 783.535 390.949C782.168 392.316 779.965 393 776.926 393H767.582C764.543 393 762.34 392.316 760.972 390.949C759.605 389.581 758.921 387.53 758.921 384.795V319.613C758.921 313.231 757.553 308.597 754.819 305.71C752.236 302.671 748.057 301.152 742.283 301.152C735.75 301.152 730.432 303.355 726.33 307.761C722.227 312.016 720.176 317.638 720.176 324.627V384.795C720.176 387.53 719.492 389.581 718.125 390.949C716.909 392.316 714.706 393 711.516 393H701.487Z" fill="black"/>
<path d="M888.732 264.686C885.085 264.686 882.275 263.623 880.299 261.496C878.324 259.368 877.336 256.785 877.336 253.747V248.96C877.336 245.922 878.324 243.339 880.299 241.211C882.275 239.084 885.085 238.021 888.732 238.021H898.532C902.179 238.021 904.99 239.084 906.965 241.211C909.092 243.339 910.156 245.922 910.156 248.96V253.747C910.156 256.785 909.092 259.368 906.965 261.496C904.99 263.623 902.179 264.686 898.532 264.686H888.732ZM887.82 393C884.782 393 882.578 392.316 881.211 390.949C879.844 389.581 879.16 387.53 879.16 384.795V292.036C879.16 289.149 879.844 287.022 881.211 285.654C882.578 284.287 884.782 283.603 887.82 283.603H899.672C902.711 283.603 904.914 284.287 906.281 285.654C907.649 287.022 908.332 289.149 908.332 292.036V384.795C908.332 387.53 907.649 389.581 906.281 390.949C905.066 392.316 902.863 393 899.672 393H887.82Z" fill="black"/>
<path d="M987.353 396.419C974.438 396.419 964.714 392.848 958.181 385.707C951.647 378.566 948.381 368.69 948.381 356.078V305.026H935.39C932.351 305.026 930.3 304.495 929.236 303.431C928.324 302.368 927.869 300.392 927.869 297.505V291.352C927.869 288.465 928.324 286.49 929.236 285.426C930.3 284.211 932.351 283.603 935.39 283.603H948.381V271.068C948.381 267.877 948.912 264.914 949.976 262.179C951.191 259.292 953.015 255.722 955.446 251.467C956.357 249.644 957.193 248.505 957.953 248.049C958.864 247.441 960.384 247.137 962.511 247.137H970.032C972.767 247.137 974.666 247.821 975.73 249.188C976.945 250.404 977.553 252.303 977.553 254.886V283.603H1004.45C1007.49 283.603 1009.46 284.211 1010.37 285.426C1011.44 286.49 1011.97 288.465 1011.97 291.352V297.505C1011.97 300.392 1011.44 302.368 1010.37 303.431C1009.46 304.495 1007.49 305.026 1004.45 305.026H977.553V355.167C977.553 362.156 978.769 367.246 981.2 370.437C983.631 373.476 987.809 374.995 993.735 374.995C997.229 374.995 1000.19 374.615 1002.62 373.855C1005.05 372.944 1007.71 371.5 1010.6 369.525C1011.36 368.917 1012.2 368.614 1013.11 368.614C1014.02 368.614 1014.93 369.297 1015.84 370.665L1022.45 381.604C1023.06 382.364 1023.36 383.2 1023.36 384.111C1023.36 385.175 1022.6 386.239 1021.08 387.302C1011.66 393.38 1000.42 396.419 987.353 396.419Z" fill="black"/>
<path d="M1100.18 396.419C1088.32 396.419 1077.61 394.443 1068.04 390.493C1058.47 386.391 1050.8 380.161 1045.02 371.804C1039.4 363.296 1036.59 352.736 1036.59 340.125C1036.59 320.524 1041.83 305.634 1052.32 295.454C1062.8 285.274 1077.69 280.184 1096.99 280.184C1116.13 280.184 1130.56 285.122 1140.29 294.998C1150.16 304.875 1155.1 319.157 1155.1 337.846C1155.1 343.164 1152.67 345.822 1147.81 345.822H1064.17C1064.17 355.851 1067.66 363.6 1074.65 369.069C1081.64 374.387 1091.36 377.046 1103.82 377.046C1115.83 377.046 1126.61 374.311 1136.19 368.841C1137.25 368.234 1138.09 367.93 1138.69 367.93C1139.76 367.93 1140.59 368.614 1141.2 369.981L1146.67 379.781C1147.13 380.693 1147.35 381.529 1147.35 382.288C1147.35 383.352 1146.67 384.339 1145.3 385.251C1139.07 389.05 1132.31 391.86 1125.02 393.684C1117.88 395.507 1109.6 396.419 1100.18 396.419ZM1128.67 328.957C1128.67 319.537 1126.01 312.168 1120.69 306.85C1115.52 301.532 1107.7 298.873 1097.21 298.873C1086.58 298.873 1078.37 301.608 1072.6 307.078C1066.98 312.548 1064.17 319.841 1064.17 328.957H1128.67Z" fill="black"/>
<path d="M157.976 323.556C44.0208 437.512 195.961 95.6457 271.932 209.601C347.902 323.556 271.932 399.526 271.932 399.526C138.984 399.526 119.991 475.497 138.984 399.526C157.976 323.556 271.932 399.526 271.932 399.526C271.932 399.526 271.932 209.601 157.976 323.556Z" fill="#1CDC9C"/>
</svg>
